<svg xmlns="http://www.w3.org/2000/svg" viewBox="492 -492 1024 1024" enable-background="new 492 -492 1024 1024"><path d="M1442.9 30.7c0 95.6-27.9 181.6-83.7 258s-128 129.3-216.3 158.6c-10.3 1.9-17.8.6-22.6-4-4.8-4.6-7.1-10.3-7.1-17.1v-120.6c0-37-9.9-64-29.7-81.1 21.7-2.3 41.2-5.7 58.6-10.3s35.2-12 53.7-22.3 33.9-23 46.3-38 22.5-35 30.3-60 11.7-53.6 11.7-86c0-46.1-15-85.3-45.1-117.7 14.1-34.7 12.6-73.5-4.6-116.6-10.7-3.4-26.1-1.3-46.3 6.3-20.2 7.6-37.7 16-52.6 25.1l-21.7 13.7c-35.4-9.9-72-14.9-109.7-14.9s-74.3 5-109.7 14.9c-6.1-4.2-14.2-9.3-24.3-15.4s-26-13.4-47.7-22-38.1-11.1-49.1-7.7c-16.8 43-18.1 81.9-4 116.6-30.3 32.3-45.3 71.6-45.3 117.7 0 32.4 3.9 61 11.7 85.7s17.8 44.8 30 60 27.5 28 46 38.3 36.4 17.7 53.7 22.3c17.3 4.6 36.9 8 58.6 10.3-15.2 13.7-24.6 33.3-28 58.9-8 3.8-16.6 6.7-25.7 8.6-9.1 1.9-20 2.9-32.6 2.9-12.6 0-25-4.1-37.4-12.3s-23-20.1-31.7-35.7c-7.2-12.2-16.5-22.1-27.7-29.7-11.2-7.6-20.7-12.2-28.3-13.7l-11.4-1.7c-8 0-13.5.9-16.6 2.6-3 1.7-4 3.9-2.9 6.6 1.1 2.7 2.9 5.3 5.1 8 2.3 2.7 4.8 5 7.4 6.9l4 2.9c8.4 3.8 16.7 11 24.9 21.7s14.2 20.4 18 29.1l5.7 13.1c5 14.5 13.3 26.2 25.1 35.1s24.6 14.7 38.3 17.1c13.7 2.5 27 3.8 39.7 4s23.3-.5 31.7-2l13.1-2.3c0 14.5.1 31.4.3 50.9s.3 29.7.3 30.9c0 6.9-2.5 12.6-7.4 17.1-5 4.6-12.6 5.9-22.9 4-88.4-29.3-160.5-82.2-216.3-158.6s-83.7-162.4-83.7-258c0-79.6 19.6-153 58.9-220.3s92.6-120.6 159.8-159.9 140.7-58.9 220.3-58.9c79.6 0 153 19.6 220.3 58.9s120.5 92.5 159.7 159.7c39.2 67.3 58.9 140.7 58.9 220.3z"/></svg>