<svg xmlns="http://www.w3.org/2000/svg" viewBox="301.8 0 1444.4 1024" enable-background="new 301.8 0 1444.4 1024"><path d="M968.8 540c-4.5.6-9.1.9-13.1-3.4-1.5-18 2.5-32.1 6.3-45.7 1.7-6.1 3.5-12.3 4.6-18.7l1.5-7.7 3.1 7.1c7.3 16.5 10.2 48.8 5.1 67l-7.5 1.4zm545.6-191.1l-1.9 2.4c-33.4 41.6-38.7 105-41 161.1 30.8-13.2 54-46.5 61.1-80.7 4.4-20.8 5.1-51.7-16.2-80.3l-2-2.5zm-687.5 196.9c2.1.5 4.6 1.1 7.7.7l1.5-.6 3.7-2.5c1-15.1-2.7-34.2-9.8-52-9.9 15-15 31.7-14.9 52.1v2.8l6-1.1c2.2-.2 3.9.1 5.8.6zm918.8 227.1c3.7 26.5-14.8 51.1-41.3 54.8l-1247.7 175c-26.5 3.7-51.1-14.8-54.8-41.3l-99.6-710.2c-3.7-26.5 14.8-51.1 41.3-54.8l1247.7-175.1c26.5-3.7 51.1 14.8 54.8 41.3l99.6 710.3zm-976.9-129.2c-18.4-34.9-32.9-75.3-46.9-114.8-18.1-50.9-36.6-102.5-61.2-141.3-2.2.6-4.1 2.9-6.2 3.2-6.7.9-12.2 3.3-18 3.2-5.6-.1-10.4 6.3-16.8 7.2l-1.8.3c-1.7.2-4.1-6.1-4.9-6.5-24.3 44.6-26.8 100.8-32.7 158.1-9.3-12.1-18-24.6-26.8-37.5-15.3-22.6-31.3-45.7-48.1-63.6-4 .2-7.8.7-11.5 1.2-16.1 2.3-30.3 7.2-43.5 13.2l4.6 37.2c7.5 64.1 13.9 119.4 37.3 169.3 3.1.1 6.1-.1 9.2-.5 19.3-2.7 35-14.5 41.8-19.4-1.1-16.4-4.9-29-8.9-42.2-2-6.8-4.2-13.6-1.8-23.2 13.2 13 25.3 27.5 37.3 42 7.7 9.2 15.3 18.3 21.2 26.3 3.3-.1 6.4-.4 9.3-.8 7.5-1 14-2.9 20.6-4.8 6.8-1.9 13.5-3.8 21.3-4.9l4.7.9c6.2-20.9 2.5-50-.9-78-3.2-25.8-6.4-52.4 2.2-73.8 20.5 55.7 45.3 109.1 75.8 163.3 7.7-2.2 16-6.1 23.8-9.8 5.8-2.7 10.9-5.3 15.2-5.9 2 .2 4.1.8 5.7 1.6zm156.3-9.6c-5.4-7.1-12.1-9.9-20.9-8.7-6.7.9-14.2 4-21.2 7-7.3 3.2-14.8 6.1-21.9 7.1-2 .3-3.9 0-5.6 0-8.6-.4-16.2-4.7-22.2-11.3-10.8-12.1-16.1-33.6-11.8-61.4 13.5 1.7 29.8 0 47.7-2.5l4.3-.6c4.6-.6 9 .2 11.8 1 3.8-36.8-7.7-84.7-18.7-111.7-5.5-.4-10.7-1.7-15.8-2.6-8.8-1.7-17.2-3.5-28-2-1.8.3-3.8.4-5.8.9-33.6 9.4-50.2 60.8-49.3 106.7.9 42.4 16.9 91.2 59 101.1 8.7 2 19 2.1 31 .5 23.9-3.4 50.5-14 67.4-23.5zm134.7-29.2c-3.1-6.9-10-10-19.6-11.6-6.2 13.3-17.4 21.7-31.7 23.7-15.4 2.2-31.5-3.5-42.5-14.8-10.3-10.7-14.7-25.4-9.3-43.3 12.7.8 25.1 1.4 36.4-.2 9.3-1.3 17.5-3.9 24.6-5.9-6.1-27.1-5.6-46.7-5.1-67.5.4-17.3.9-35.3-1.5-56.7-17.3-9.6-34.8-13.3-53.5-12.3-40.9 41.3-54.5 98-42 172.5 10.9 32.2 57.4 46.5 94.3 41.4 22.5-3 40.3-12.8 49.9-25.3zm144.1-124.8c-6.3-3.8-11.9-8.4-17.5-13.2-10.5-9-20.5-17.3-35.1-19.2-2.9.4-3.2 2.7-2.6 9.2.5 5.3 1.1 13.4-6.8 14.5l-5.5.8v-1.9c-1.3-23.5-6.7-49.9-12.7-79.3-8.5-41.6-16.6-80.5-14.2-117.1-10.7-9.7-25.7-13.7-53-9.8l-1 .1c-2.2.3-5.3-6.3-6.1-7.6-8 45.1 5.5 91.6 19.3 142.5 7.9 29 15.4 56.1 14.8 83.4-5.4.8-11 .9-16.3 1.2-4.8.3-9.4.4-13.6 1-7.9 1.1-12.3 3.1-14.7 6.7-2.7 4-2.7 10.3-1.5 17.6 11.8 5.8 30.5 3.7 48.7 1.7l11.8 1c2.7 15.7 6 30.6 9.3 45.5 4.9 21.8 10 44.4 12.9 69.4 4.6-1.3 8.9-2.2 13.1-3 8.1-1.7 15.6-3.3 24.1-5.4-2.7-17.5-5.7-34.3-8.7-50.4-4.1-22.4-7.9-43.9-9.2-67.2 7.7-3.4 17.3-5.2 26.6-7.1 15.5-3.3 31.7-6.5 37.9-13.4zm162.6-51.5c-12.6-7.6-28.7-21.5-44.5-19.3l-3.5.5c-1.7.2-2.5 4.8-3.4 4.1l1.9 16.6c5.3 45.6 12.6 108.6-28.8 129.8-8-26.7-13.3-56.4-18-82.8-2.5-14.1-4.8-26.9-5.7-36-4.5-1.4-8.7-3.1-12.9-4.9-11.7-4.9-22.7-9.5-39.5-9.5 4.4 79 19.5 129.6 44.8 150.4 10.4 8.6 22.8 11.9 36.7 10 9.8-1.4 20.5-5.3 31-10.8l3.3-7c6.2-13.2 10.2-21.8 20.6-32.3 2.3-5.8 4.5-12.8 7.1-18.4 11.4-24.9 21.5-51.4 10.9-90.4zm199.4-102.9c-25.9-10.7-47.7-14.5-66.7-11.8-23.6 3.3-42.6 16.8-58.2 41.3-29.1 46.1-24.3 132.9-23.4 176.8-2 1.2-4.2 2.2-6.4 3.2-5.8 2.7-11.3 5.2-13 8.3 21.4 18.7 30 54.3 38.4 88.6 6.5 26.5 13.2 53.8 23.7 71.6 4.5.3 10.7 0 19-1.2 3.8-.5 7.9-1.2 11.9-1.8 6.8-1 13.6-1.6 19.2-.7-17.2-30.2-28.3-73-33.3-136.9 50.1-19.5 90.9-62.7 106.6-112.8 9.6-30.2 14-76.6-17.8-124.6z"/></svg>