<svg xmlns="http://www.w3.org/2000/svg" viewBox="492 -492 1024 1024" enable-background="new 492 -492 1024 1024"><path d="M928.5-16.9l38.7 115 114.3-38.6-38.8-115.4c-31.5 10.8-69.1 23.6-114.2 39zm551.1 120.8c-15-202.5-87-358.5-130.5-429s-82.5-168-334.5-124.5l-370.5 141s-151.5 96-109.5 310.5l69 258s84.1 265.5 334.6 238.5l410.9-132s145.5-60 130.5-262.5zm-174.5-20.2c-6.2 9.7-25.8 18.2-25.8 18.2l-63.3 21.7 20.6 61.1.4 1.4c8.1 28.5-6.9 57.2-34 66.4-5.4 1.8-11 2.7-16.6 2.8-23.2.2-43.7-14.5-51.1-36.4l-20.4-60.7-114.2 39 20.2 60.1c.3.8.5 1.6.7 2.4 7.9 27.5-7.2 56.2-34.4 65.3-5.4 1.8-11 2.7-16.6 2.8-23.2.2-43.7-14.5-51.1-36.4l-20.1-59.6-56.6 19.3c-6.1 2-12.3 3.1-18.5 3.2-23.1.2-42.6-13.3-49.6-34.3l-.8-2.4c-7.9-27.6 7.2-56.5 34.4-65.6l57.6-19.5-38.6-114.8c-18.3 6.3-37.6 12.8-57.8 19.7-5.8 2-11.7 3-17.7 3-22.9.2-42.3-13.5-49.5-34.8-.3-.8-.5-1.6-.7-2.4-7.8-27.3 7.3-55.8 34.4-65l58-19.4-19.7-58.4c-.3-.8-.5-1.6-.7-2.4-7.8-27.5 7.2-56.1 34.3-65.3 5.4-1.8 11-2.7 16.6-2.8 23.2-.2 43.7 14.4 51.1 36.4l19.7 58.6 114.4-38.3-19.7-58.8-.7-2.4c-7.9-27.5 7.3-56.2 34.4-65.3 5.4-1.8 11-2.8 16.7-2.8 8.4-.1 16.5 1.8 24.1 5.6 12.8 6.4 22.3 17.3 26.9 30.8l19.8 58.9 59.6-20c5.3-1.5 10.6-2.3 15.9-2.3 23.5-.2 43.5 13.8 50.8 35.5l.7 2.1c8.1 28.4-12.1 53.8-36.3 61.9 0 0-1.1.4-58 19.8l38.9 115.7 60.3-20.4c5.6-1.9 11.4-2.8 17.3-2.9 23.2-.2 43.5 14 50.7 35.2l.7 2.2c4.1 14.7 1.6 31.2-6.7 44.3z"/></svg>