<svg xmlns="http://www.w3.org/2000/svg" width="24" height="23.981" viewBox="0 0 24 23.981">
  <g id="slack" transform="translate(-0.7 -0.6)">
    <path id="Pfad_10" data-name="Pfad 10" d="M5.841,69.32A2.52,2.52,0,1,1,3.32,66.8h2.52Zm1.26,0a2.52,2.52,0,1,1,5.041,0v6.3a2.52,2.52,0,1,1-5.041,0Z" transform="translate(-0.081 -53.56)" fill="#c7c7c7"/>
    <path id="Pfad_11" data-name="Pfad 11" d="M9.54,5.641a2.52,2.52,0,1,1,2.52-2.52v2.52Zm0,1.279a2.52,2.52,0,1,1,0,5.041H3.22a2.52,2.52,0,1,1,0-5.041Z" fill="#c7c7c7"/>
    <path id="Pfad_12" data-name="Pfad 12" d="M73.2,9.44a2.52,2.52,0,1,1,2.52,2.52H73.2Zm-1.26,0a2.52,2.52,0,0,1-5.041,0V3.12a2.52,2.52,0,0,1,5.041,0V9.44Z" transform="translate(-53.56)" fill="#c7c7c7"/>
    <path id="Pfad_13" data-name="Pfad 13" d="M69.42,73.1a2.52,2.52,0,1,1-2.52,2.52V73.1Zm0-1.26a2.52,2.52,0,0,1,0-5.041h6.32a2.52,2.52,0,0,1,0,5.041Z" transform="translate(-53.56 -53.56)" fill="#c7c7c7"/>
  </g>
</svg>
