<svg xmlns="http://www.w3.org/2000/svg" viewBox="492 -492 1024 1024" enable-background="new 492 -492 1024 1024"><path d="M1454.3-258.9c-25.5 37.3-56.4 69.1-92.6 95.4.4 5.3.6 13.3.6 24 0 49.5-7.2 99-21.7 148.3-14.5 49.3-36.5 96.7-66 142s-64.7 85.4-105.4 120.3c-40.8 34.9-89.9 62.7-147.4 83.4-57.5 20.8-119 31.1-184.6 31.1-103.2 0-197.7-27.6-283.4-82.9 13.3 1.5 28.2 2.3 44.6 2.3 85.7 0 162.1-26.3 229.1-78.9-40-.8-75.8-13-107.4-36.9s-53.3-54.2-65.1-91.1c12.6 1.9 24.2 2.9 34.9 2.9 16.4 0 32.6-2.1 48.6-6.3-42.7-8.8-78-30-106-63.7s-42-72.9-42-117.4v-2.3c25.9 14.5 53.7 22.3 83.4 23.4-25.1-16.8-45.1-38.7-60-65.7-14.9-27-22.3-56.4-22.3-88 0-33.5 8.4-64.6 25.1-93.1 46.1 56.8 102.2 102.2 168.3 136.3s136.9 53 212.3 56.9c-3-14.5-4.6-28.6-4.6-42.3 0-51 18-94.6 54-130.6s79.5-54 130.6-54c53.3 0 98.3 19.4 134.9 58.3 41.5-8 80.6-22.9 117.1-44.6-14.1 43.8-41.1 77.7-81.1 101.7 35.2-3.7 70.7-13.2 106.1-28.5z"/></svg>